<mxfile host="app.diagrams.net" modified="2023-09-03T15:55:51.661Z" agent="Mozilla/5.0 (X11; Linux x86_64) AppleWebKit/537.36 (KHTML, like Gecko) Chrome/116.0.0.0 Safari/537.36" version="21.6.9" etag="7dleFqiZ8qLY2Hj8Vnjm" type="github">
  <diagram name="Page-1" id="lrvP2X8w-K6p1FfI3uRz">
    <mxGraphModel>
      <root>
        <mxCell id="0" />
        <mxCell id="1" parent="0" />
      </root>
    </mxGraphModel>
  </diagram>
</mxfile>
